<?xml version="1.0" encoding="UTF-8" standalone="no"?>
<!DOCTYPE svg PUBLIC "-//W3C//DTD SVG 1.1//EN"
 "http://www.w3.org/Graphics/SVG/1.1/DTD/svg11.dtd">
<!-- Generated by graphviz version 12.1.2 (0)
 -->
<!-- Title: testing Pages: 1 -->
<svg width="729pt" height="177pt"
 viewBox="0.00 0.00 728.74 176.85" xmlns="http://www.w3.org/2000/svg" xmlns:xlink="http://www.w3.org/1999/xlink">
<g id="graph0" class="graph" transform="scale(1 1) rotate(0) translate(4 172.85)">
<title>testing</title>
<!-- submit -->
<g id="node1" class="node">
<title>submit</title>
<ellipse fill="lightgrey" stroke="black" cx="52.68" cy="-105.28" rx="52.68" ry="52.68"/>
<text text-anchor="middle" x="52.68" y="-115.6" font-family="Helvetica,sans-Serif" font-size="14.00">Submit to</text>
<text text-anchor="middle" x="52.68" y="-99.85" font-family="Helvetica,sans-Serif" font-size="14.00">dev/gfdl</text>
<text text-anchor="middle" x="52.68" y="-84.1" font-family="Helvetica,sans-Serif" font-size="14.00">for review</text>
</g>
<!-- ci -->
<g id="node2" class="node">
<title>ci</title>
<ellipse fill="lightgrey" stroke="black" cx="203.87" cy="-105.28" rx="58.51" ry="58.51"/>
<ellipse fill="none" stroke="black" cx="203.87" cy="-105.28" rx="62.51" ry="62.51"/>
<text text-anchor="middle" x="203.87" y="-107.73" font-family="Helvetica,sans-Serif" font-size="14.00">CI</text>
<text text-anchor="middle" x="203.87" y="-91.98" font-family="Helvetica,sans-Serif" font-size="14.00">Verification</text>
</g>
<!-- submit&#45;&gt;ci -->
<g id="edge1" class="edge">
<title>submit:e&#45;&gt;ci</title>
<path fill="none" stroke="white" d="M105.36,-105.28C113.18,-105.28 121.36,-105.28 129.51,-105.28"/>
<polygon fill="white" stroke="white" points="129.46,-108.78 139.46,-105.28 129.46,-101.78 129.46,-108.78"/>
</g>
<!-- ci&#45;&gt;submit -->
<g id="edge5" class="edge">
<title>ci:sw&#45;&gt;submit</title>
<path fill="none" stroke="yellow" stroke-dasharray="5,2" d="M160.46,-60.86C157.61,-58.01 162.38,-45.53 159.46,-42.76 153.61,-37.24 149.02,-40.31 141.36,-42.76 127.31,-47.26 113.6,-54.92 101.34,-63.37"/>
<polygon fill="yellow" stroke="yellow" points="99.54,-60.35 93.5,-69.06 103.65,-66.02 99.54,-60.35"/>
</g>
<!-- review -->
<g id="node3" class="node">
<title>review</title>
<ellipse fill="lightgrey" stroke="black" cx="349.76" cy="-105.28" rx="47.38" ry="47.38"/>
<text text-anchor="middle" x="349.76" y="-107.73" font-family="Helvetica,sans-Serif" font-size="14.00">Review</text>
<text text-anchor="middle" x="349.76" y="-91.98" font-family="Helvetica,sans-Serif" font-size="14.00">changes</text>
</g>
<!-- ci&#45;&gt;review -->
<g id="edge2" class="edge">
<title>ci&#45;&gt;review</title>
<path fill="none" stroke="white" d="M266.73,-105.28C274.71,-105.28 282.87,-105.28 290.78,-105.28"/>
<polygon fill="white" stroke="white" points="290.66,-108.78 300.66,-105.28 290.66,-101.78 290.66,-108.78"/>
</g>
<!-- review&#45;&gt;submit -->
<g id="edge6" class="edge">
<title>review&#45;&gt;submit</title>
<path fill="none" stroke="yellow" stroke-dasharray="5,2" d="M318.41,-69.28C304.23,-55.21 286.12,-40.69 266.39,-33.28 214.36,-13.75 193.68,-14.55 141.36,-33.28 125.54,-38.94 110.52,-48.83 97.54,-59.49"/>
<polygon fill="yellow" stroke="yellow" points="95.32,-56.78 90.03,-65.97 99.89,-62.08 95.32,-56.78"/>
</g>
<!-- regression -->
<g id="node4" class="node">
<title>regression</title>
<ellipse fill="lightgrey" stroke="black" cx="496.71" cy="-105.28" rx="59.57" ry="59.57"/>
<ellipse fill="none" stroke="black" cx="496.71" cy="-105.28" rx="63.57" ry="63.57"/>
<text text-anchor="middle" x="496.71" y="-107.73" font-family="Helvetica,sans-Serif" font-size="14.00">Regression</text>
<text text-anchor="middle" x="496.71" y="-91.98" font-family="Helvetica,sans-Serif" font-size="14.00">testing</text>
</g>
<!-- review&#45;&gt;regression -->
<g id="edge3" class="edge">
<title>review&#45;&gt;regression</title>
<path fill="none" stroke="white" d="M397.42,-105.28C405.07,-105.28 413.16,-105.28 421.29,-105.28"/>
<polygon fill="white" stroke="white" points="421.24,-108.78 431.24,-105.28 421.24,-101.78 421.24,-108.78"/>
</g>
<!-- regression&#45;&gt;submit -->
<g id="edge7" class="edge">
<title>regression&#45;&gt;submit</title>
<path fill="none" stroke="yellow" stroke-dasharray="5,2" d="M442.77,-71.16C372.08,-30.18 243.85,27.96 141.36,-15.28 121.86,-23.51 104.54,-38.43 90.56,-53.78"/>
<polygon fill="yellow" stroke="yellow" points="88.05,-51.33 84.13,-61.18 93.33,-55.93 88.05,-51.33"/>
</g>
<!-- merge -->
<g id="node5" class="node">
<title>merge</title>
<ellipse fill="lightgrey" stroke="black" cx="658.51" cy="-105.28" rx="62.23" ry="62.23"/>
<text text-anchor="middle" x="658.51" y="-107.73" font-family="Helvetica,sans-Serif" font-size="14.00">Rebase into</text>
<text text-anchor="middle" x="658.51" y="-91.98" font-family="Helvetica,sans-Serif" font-size="14.00">dev/gfdl</text>
</g>
<!-- regression&#45;&gt;merge -->
<g id="edge4" class="edge">
<title>regression&#45;&gt;merge</title>
<path fill="none" stroke="white" d="M560.41,-105.28C568.37,-105.28 576.58,-105.28 584.68,-105.28"/>
<polygon fill="white" stroke="white" points="584.53,-108.78 594.53,-105.28 584.53,-101.78 584.53,-108.78"/>
</g>
</g>
</svg>
